<mxfile host="65bd71144e">
    <diagram id="yOH5vxmfxlyMuCJs_AOS" name="Page-1">
        <mxGraphModel dx="622" dy="1313" grid="0" gridSize="10" guides="1" tooltips="1" connect="1" arrows="1" fold="1" page="0" pageScale="1" pageWidth="850" pageHeight="1100" math="0" shadow="0">
            <root>
                <mxCell id="0"/>
                <mxCell id="1" parent="0"/>
                <mxCell id="3" value="Apple.com routes" style="text;html=1;align=center;verticalAlign=middle;resizable=0;points=[];autosize=1;strokeColor=none;fillColor=none;" vertex="1" parent="1">
                    <mxGeometry x="282" y="-473" width="111" height="26" as="geometry"/>
                </mxCell>
                <mxCell id="4" value="/" style="rounded=0;whiteSpace=wrap;html=1;" vertex="1" parent="1">
                    <mxGeometry x="88" y="-432" width="30" height="29" as="geometry"/>
                </mxCell>
                <mxCell id="7" value="Store" style="rounded=0;whiteSpace=wrap;html=1;" vertex="1" parent="1">
                    <mxGeometry x="184" y="-432" width="76" height="29" as="geometry"/>
                </mxCell>
                <mxCell id="11" value="Mac" style="rounded=0;whiteSpace=wrap;html=1;" vertex="1" parent="1">
                    <mxGeometry x="184" y="-387" width="76" height="29" as="geometry"/>
                </mxCell>
            </root>
        </mxGraphModel>
    </diagram>
</mxfile>